{"title":"Sons.of.Winter.S01E02.The.Coldest.Night.HDTV.XviD-AFG","uid":11889453,"size":355348248,"categoryP":"other","categoryS":"other","magnet":"?xt=urn:btih:7806d608fa2a3b9653f4412af93a1d67b1627034&amp;dn=Sons.of.Winter.S01E02.The.Coldest.Night.HDTV.XviD-AFG&amp;tr=udp%3A%2F%2Ftracker.openbittorrent.com%3A80&amp;tr=udp%3A%2F%2Fopen.demonii.com%3A1337&amp;tr=udp%3A%2F%2Ftracker.coppersurfer.tk%3A6969&amp;tr=udp%3A%2F%2Fexodus.desync.com%3A6969","seeders":2,"leechers":1,"uploader":"toots2boots","files":2,"time":1430939476,"description":"Meet the Barks family, homesteaders who have rejected modern living in favor of living off the grid and maintaining a prairie lifestyle in a remote area of northern Saskatchewan, Canada.This winter, their entire world is about to change. The two eldest sons, 20-year-old Dale and 19-year-old Shane, will embark on an epic, 90-day journey hundreds of miles away from home in order to survive the unforgiving wilderness on their own.\n\nGeneral\nComplete name                            : G:Torrent uploadSons of Winters S01E02Sons.of.Winter.S01E02.The.Coldest.Night.HDTV.XviD-AFGSons.of.Winter.S01E02.The.Coldest.Night.HDTV.XviD-AFG.avi\nFormat                                   : AVI\nFormat/Info                              : Audio Video Interleave\nFile size                                : 339 MiB\nDuration                                 : 42mn 29s\nOverall bit rate mode                    : Variable\nOverall bit rate                         : 1 115 Kbps\n\nVideo\nID                                       : 0\nFormat                                   : MPEG-4 Visual\nFormat profile                           : Advanced Simple@L5\nFormat settings, BVOP                    : 2\nFormat settings, QPel                    : No\nFormat settings, GMC                     : No warppoints\nFormat settings, Matrix                  : Default (H.263)\nCodec ID                                 : XVID\nCodec ID/Hint                            : XviD\nDuration                                 : 42mn 29s\nBit rate                                 : 974 Kbps\nWidth                                    : 640 pixels\nHeight                                   : 360 pixels\nDisplay aspect ratio                     : 16:9\nFrame rate                               : 23.976 fps\nColor space                              : YUV\nChroma subsampling                       : 4:2:0\nBit depth                                : 8 bits\nScan type                                : Progressive\nCompression mode                         : Lossy\nBits/(Pixel*Frame)                       : 0.176\nStream size                              : 296 MiB (87%)\nWriting library                          : XviD 64\n\nAudio\nID                                       : 1\nFormat                                   : MPEG Audio\nFormat version                           : Version 1\nFormat profile                           : Layer 3\nMode                                     : Joint stereo\nMode extension                           : MS Stereo\nCodec ID                                 : 55\nCodec ID/Hint                            : MP3\nDuration                                 : 42mn 29s\nBit rate mode                            : Variable\nBit rate                                 : 128 Kbps\nChannel(s)                               : 2 channels\nSampling rate                            : 48.0 KHz\nCompression mode                         : Lossy\nStream size                              : 38.9 MiB (11%)\nAlignment                                : Aligned on interleaves\nInterleave, duration                     : 24 ms (0.58 video frame)\nInterleave, preload duration             : 178 ms\nTitle                                    : Sons.of.Winter.S01E02.The.Coldest.Night.HDTV.XviD-AFG_360p.audio","torrent":{"xt":"urn:btih:7806d608fa2a3b9653f4412af93a1d67b1627034","amp;dn":"Sons.of.Winter.S01E02.The.Coldest.Night.HDTV.XviD-AFG","amp;tr":["udp%3A%2F%2Ftracker.openbittorrent.com%3A80","udp%3A%2F%2Fopen.demonii.com%3A1337","udp%3A%2F%2Ftracker.coppersurfer.tk%3A6969","udp%3A%2F%2Fexodus.desync.com%3A6969"],"infoHash":"7806d608fa2a3b9653f4412af93a1d67b1627034","infoHashBuffer":{"type":"Buffer","data":[120,6,214,8,250,42,59,150,83,244,65,42,249,58,29,103,177,98,112,52]},"announce":[],"urlList":[]}}